# xmcd
# Copyright (C) 1995-1998 Ti Kan
#
# Track frame offsets:
#       150
#       31855
#       48452
#       68305
#       87757
#       108667
#       131282
#       152855
#       174092
#       186652
#
# Disc length: 2876 seconds
#
# Revision: 0
# Processed by: cddbd v1.5.2PL0 Copyright (c) Steve Scherf et al.
# Submitted via: CD-Import v1.0
#
DISCID=780b3a0a
DTITLE=Embrace - If You've Never Been
DYEAR=2001
DGENRE=
TTITLE0=Over
TTITLE1=I Hope You're Happy Now
TTITLE2=Wonder
TTITLE3=Many Will Learn
TTITLE4=It's Gonna Take Time
TTITLE5=Hey, What You Trying To Say
TTITLE6=If You've Never Been In Love
TTITLE7=Make It Last
TTITLE8=Happiness Will Get You In The End
TTITLE9=Satellites
EXTD=
EXTT0=
EXTT1=
EXTT2=
EXTT3=
EXTT4=
EXTT5=
EXTT6=
EXTT7=
EXTT8=
EXTT9=
PLAYORDER=
